<?xml version="1.0" encoding="UTF-8" standalone="no"?>
<!DOCTYPE svg PUBLIC "-//W3C//DTD SVG 1.1//EN" "http://www.w3.org/Graphics/SVG/1.1/DTD/svg11.dtd">
<svg width="100%" height="100%" viewBox="0 0 3508 3508" version="1.1" xmlns="http://www.w3.org/2000/svg" xmlns:xlink="http://www.w3.org/1999/xlink" xml:space="preserve" xmlns:serif="http://www.serif.com/" style="fill-rule:evenodd;clip-rule:evenodd;stroke-linecap:round;stroke-linejoin:round;stroke-miterlimit:1.5;">
    <g transform="matrix(1.03114,-1.11022e-16,0,1.29723,-253.235,-231.155)">
        <path d="M1962.53,922.057C2281.52,467.486 2919.52,467.486 3238.51,694.772C3557.52,922.057 3557.52,1376.63 3238.51,1831.2C3015.22,2172.13 2441.02,2513.05 1962.53,2740.34C1484.03,2513.05 909.838,2172.13 686.539,1831.2C367.542,1376.63 367.542,922.057 686.539,694.772C1005.54,467.486 1643.53,467.486 1962.53,922.057Z" style="fill:rgb(163,177,138);stroke:rgb(255,251,239);stroke-width:100.93px;"/>
    </g>
    <path d="M1718.9,1855.19C1692.29,1830.55 1690.69,1788.94 1715.33,1762.33C1739.97,1735.71 1781.58,1734.11 1808.19,1758.75C1829.69,1778.65 1858.14,1776.67 1887.06,1766.51C1931.55,1750.87 1976.81,1715.77 2015.69,1672.27C2058.14,1624.78 2092.94,1566.83 2108.97,1509.01C2122.14,1461.51 2123.22,1414.03 2097.87,1376.23C2074.8,1341.85 2031.78,1317.74 1966.51,1304.07C1688.2,1245.82 1406.78,1390.86 1225.38,1605.89C1046.58,1817.85 961.936,2100.85 1087,2331.91C1108.15,2370.98 1265.39,2669.85 1580.41,2586.75C1860.36,2512.9 2390.39,2093.02 2884.91,1719.89C2913.86,1698.05 2955.1,1703.81 2976.94,1732.77C2998.79,1761.72 2993.02,1802.96 2964.07,1824.8C2453.67,2209.91 1902.88,2637.6 1613.93,2713.83C1206.92,2821.2 998.745,2444.95 971.421,2394.47C821.375,2117.27 910.409,1775.44 1124.92,1521.15C1336.83,1269.95 1668.33,1107.39 1993.43,1175.43C2140.8,1206.28 2212.32,1282.42 2238.25,1369.54C2274.44,1491.08 2213.58,1648.1 2113.68,1759.86C2046.69,1834.79 1963.69,1888.17 1888.65,1901.71C1825.66,1913.07 1766.71,1899.45 1718.9,1855.19Z" style="fill:rgb(255,251,239);"/>
</svg>

